<svg xmlns="http://www.w3.org/2000/svg" width="24" height="24" viewBox="0 0 24 24"><defs><style>.cls-1{fill:#252525;}</style></defs><title>Ресурс 1</title><g id="Слой_2" data-name="Слой 2"><g id="Слой_1-2" data-name="Слой 1"><path class="cls-1" d="M12,5.8A6.2,6.2,0,1,0,18.1,12,6.1,6.1,0,0,0,12,5.8ZM12,16a4,4,0,1,1,4-4A4,4,0,0,1,12,16ZM18.4,4.2a1.4,1.4,0,1,0,1.3.9l-.3-.5-.5-.3ZM24,12c0-1.7,0-3.3-.1-4.9A7.1,7.1,0,0,0,22,2a7.1,7.1,0,0,0-5-1.9H7A7.1,7.1,0,0,0,2,2,7.1,7.1,0,0,0,.1,7C0,8.7,0,10.3,0,12s0,3.3.1,4.9A7.1,7.1,0,0,0,2,22a7.1,7.1,0,0,0,5,1.9h9.9A7.1,7.1,0,0,0,22,22a7.1,7.1,0,0,0,1.9-5C24,15.3,24,13.6,24,12Zm-2.6,7.1a4.1,4.1,0,0,1-2.3,2.3c-1.6.6-5.3.5-7.1.5s-5.5.1-7.1-.5a4.1,4.1,0,0,1-2.3-2.3c-.6-1.6-.5-5.3-.5-7.1S2,6.5,2.6,4.9a3.8,3.8,0,0,1,.9-1.4,3.9,3.9,0,0,1,1.4-.9c1.6-.6,5.3-.5,7.1-.5s5.5-.1,7.1.5a3.8,3.8,0,0,1,1.4.9,3.8,3.8,0,0,1,.9,1.4c.6,1.6.5,5.3.5,7.1S22,17.5,21.3,19.1Z"/></g></g></svg>