<svg xmlns="http://www.w3.org/2000/svg" width="24" height="19.8" viewBox="0 0 24 19.8"><defs><style>.cls-1{fill:#252525;}</style></defs><title>Ресурс 1</title><g id="Слой_2" data-name="Слой 2"><g id="Слой_1-2" data-name="Слой 1"><path class="cls-1" d="M24,2.3a9.7,9.7,0,0,1-2.8.8A5,5,0,0,0,23.3.4a9.6,9.6,0,0,1-3.1,1.2A4.9,4.9,0,0,0,18.6.4a4.8,4.8,0,0,0-2-.4,4.9,4.9,0,0,0-4.9,5,5.8,5.8,0,0,0,.1,1.1A13.9,13.9,0,0,1,1.7.9,5,5,0,0,0,3.2,7.6,4.9,4.9,0,0,1,1,6.9H1a5,5,0,0,0,3.9,4.9l-1.3.2H2.7a4.9,4.9,0,0,0,4.6,3.5,9.8,9.8,0,0,1-6.1,2.1H0a13.8,13.8,0,0,0,7.5,2.2c9,0,14-7.6,14-14.2,0-.2,0-.4,0-.6A10.7,10.7,0,0,0,24,2.3Z"/></g></g></svg>