<svg xmlns="http://www.w3.org/2000/svg" width="24" height="17.6" viewBox="0 0 24 17.6"><defs><style>.cls-1{fill:#252525;}</style></defs><title>Ресурс 1</title><g id="Слой_2" data-name="Слой 2"><g id="Слой_1-2" data-name="Слой 1"><path class="cls-1" d="M23.5,2.8a3.2,3.2,0,0,0-.8-1.4A3,3,0,0,0,21.4.5C19.5,0,12,0,12,0S4.5,0,2.6.5a3,3,0,0,0-1.3.8A3.2,3.2,0,0,0,.5,2.8,34.2,34.2,0,0,0,0,8.8a34.2,34.2,0,0,0,.5,6.1,3.2,3.2,0,0,0,.8,1.4,3,3,0,0,0,1.3.8c1.9.5,9.4.5,9.4.5s7.5,0,9.4-.5a3,3,0,0,0,1.3-.8,3.2,3.2,0,0,0,.8-1.4A34.2,34.2,0,0,0,24,8.8,34.2,34.2,0,0,0,23.5,2.8ZM9.6,12.6V5l6.2,3.8Z"/></g></g></svg>