<svg xmlns="http://www.w3.org/2000/svg" width="47.8" height="44.1" viewBox="0 0 47.8 44.1"><defs><style>.cls-1{fill:#252525;}</style></defs><title>Ресурс 1</title><g id="Слой_2" data-name="Слой 2"><g id="Слой_1-2" data-name="Слой 1"><path class="cls-1" d="M23.8,20.7A7.7,7.7,0,1,0,15.9,13,7.8,7.8,0,0,0,23.8,20.7ZM23.6,8.5h0a4.6,4.6,0,0,1,4.6,4.6,4.5,4.5,0,0,1-9.1,0A4.6,4.6,0,0,1,23.6,8.5Z"/><path class="cls-1" d="M47.3,19.8a15.8,15.8,0,0,0-11.2-4H34.9a10.6,10.6,0,0,1-1.4,3.3,15.5,15.5,0,0,1,2.7-.2,13.3,13.3,0,0,1,8.4,2.5V33h3.2V20.3Z"/><path class="cls-1" d="M32.5,5.6a3.9,3.9,0,0,1,7.2,3,4,4,0,0,1-3.5,2.4,2.7,2.7,0,0,1-1.1-.2,11.2,11.2,0,0,1,.2,2.2v1l1,.2A7.1,7.1,0,1,0,36.3.1a6.8,6.8,0,0,0-6.1,3.5A6.8,6.8,0,0,1,32.5,5.6Z"/><path class="cls-1" d="M14.3,19.3A10.6,10.6,0,0,1,12.9,16H11.6A16.4,16.4,0,0,0,.5,19.8l-.5.5V33H3.2V21.5A13.6,13.6,0,0,1,11.6,19,14.1,14.1,0,0,1,14.3,19.3Z"/><path class="cls-1" d="M11.6,14.1a2,2,0,0,0,1-.2V13a9.7,9.7,0,0,1,.2-2.2,2.7,2.7,0,0,1-1.1.2A3.9,3.9,0,0,1,7.8,7.1a3.9,3.9,0,0,1,3.8-3.8,4,4,0,0,1,3.7,2.4,15.8,15.8,0,0,1,2.4-2.2,7.1,7.1,0,1,0-6.1,10.6Z"/><path class="cls-1" d="M36.8,29.3l-.3-.5a16.1,16.1,0,0,0-12.4-5.4,16.4,16.4,0,0,0-12.6,5.4l-.3.5V41.4a2.7,2.7,0,0,0,2.7,2.7H34.3A2.8,2.8,0,0,0,37,41.4V29.3ZM33.6,40.9H14.3V30.4a13.6,13.6,0,0,1,9.7-3.8,12.9,12.9,0,0,1,9.6,3.8Z"/></g></g></svg>