<svg xmlns="http://www.w3.org/2000/svg" width="47.9" height="26.8" viewBox="0 0 47.9 26.8"><defs><style>.cls-1{fill:#252525;}</style></defs><title>Ресурс 1</title><g id="Слой_2" data-name="Слой 2"><g id="Слой_1-2" data-name="Слой 1"><path class="cls-1" d="M43.1,12.2a4.7,4.7,0,0,0-1.7.3L35.7,7.7a6.2,6.2,0,0,0,.2-1.6,6,6,0,1,0-12,0,6.2,6.2,0,0,0,.6,2.7l-7,8.4h-.8l-1.2.2L9.4,11a4.7,4.7,0,0,0,.2-1.2A4.8,4.8,0,0,0,4.8,4.9,4.8,4.8,0,0,0,0,9.7a4.8,4.8,0,0,0,4.8,4.9L6,14.4l6.1,6.2a4.7,4.7,0,0,0-.2,1.2,4.8,4.8,0,1,0,9.6,0,4.9,4.9,0,0,0-.3-1.6l7-8.4,1.7.3a5.9,5.9,0,0,0,2.7-.7l5.7,4.8a5.2,5.2,0,0,0-.1.8,4.8,4.8,0,1,0,4.8-4.9Z"/></g></g></svg>