<svg xmlns="http://www.w3.org/2000/svg" width="35.8" height="48" viewBox="0 0 35.8 48"><defs><style>.cls-1{fill:#252525;}</style></defs><title>Ресурс 1</title><g id="Слой_2" data-name="Слой 2"><g id="Слой_1-2" data-name="Слой 1"><path class="cls-1" d="M9.1,34c-.8-.8-.4-.6-2.3-1.1a6.7,6.7,0,0,1-2.4-1.2L.1,42.1a1.5,1.5,0,0,0,1.4,2.1l4.9-.2,3.4,3.6a1.5,1.5,0,0,0,2.5-.5l4.9-12A6.7,6.7,0,0,1,9.1,34Zm26.7,8.1L31.5,31.6a6.7,6.7,0,0,1-2.4,1.2c-2,.5-1.5.3-2.3,1.1a6.7,6.7,0,0,1-8.1,1.1l4.9,12a1.5,1.5,0,0,0,2.5.5l3.4-3.6,4.9.2A1.5,1.5,0,0,0,35.7,42.1ZM24.5,31.9c1.4-1.5,1.6-1.3,3.6-1.9a3.8,3.8,0,0,0,2.7-2.7c.7-2.7.5-2.3,2.4-4.3a3.9,3.9,0,0,0,1-3.7c-.7-2.7-.7-2.3,0-5a3.9,3.9,0,0,0-1-3.7C31.3,8.7,31.5,9,30.8,6.3a3.8,3.8,0,0,0-2.7-2.7c-2.6-.7-2.3-.5-4.2-2.5a3.7,3.7,0,0,0-3.6-1c-2.6.7-2.2.7-4.8,0a3.7,3.7,0,0,0-3.6,1C10,3.1,10.3,2.9,7.7,3.6A3.8,3.8,0,0,0,5,6.3C4.3,9,4.5,8.7,2.6,10.6a3.9,3.9,0,0,0-1,3.7c.7,2.7.7,2.3,0,5a3.9,3.9,0,0,0,1,3.7c1.9,1.9,1.7,1.6,2.4,4.3A3.8,3.8,0,0,0,7.7,30c2.1.6,2.2.5,3.6,1.9a3.7,3.7,0,0,0,4.6.5,3.7,3.7,0,0,1,4,0A3.7,3.7,0,0,0,24.5,31.9ZM9.1,16.5a8.9,8.9,0,0,1,8.8-9,8.9,8.9,0,0,1,8.8,9,8.9,8.9,0,0,1-8.8,9A8.9,8.9,0,0,1,9.1,16.5Z"/></g></g></svg>