<svg xmlns="http://www.w3.org/2000/svg" width="48" height="47.4" viewBox="0 0 48 47.4"><defs><style>.cls-1{fill:#252525;}</style></defs><title>Ресурс 1</title><g id="Слой_2" data-name="Слой 2"><g id="Слой_1-2" data-name="Слой 1"><path class="cls-1" d="M46.2,9.5V1.9A1.9,1.9,0,0,0,44.3,0H3.7A1.9,1.9,0,0,0,1.8,1.9V9.5A1.9,1.9,0,0,0,0,11.4v7.8a10.4,10.4,0,0,0,.9,4.2,10.5,10.5,0,0,0,.9,1.7V45.5a1.9,1.9,0,0,0,1.9,1.9H44.3a1.9,1.9,0,0,0,1.9-1.9V25.1a10.3,10.3,0,0,0,.9-1.7,10.5,10.5,0,0,0,.9-4.2V11.4A1.9,1.9,0,0,0,46.2,9.5ZM6.1,4.3H41.9V9.5H6.1ZM27.8,43.2H20.2V37h7.7Zm14.1,0H31.7V35.1a1.9,1.9,0,0,0-1.9-1.9H18.2a1.9,1.9,0,0,0-1.9,1.9v8.1H6.1V28.8l.5.2a11,11,0,0,0,10.8-1.3h0A11.1,11.1,0,0,0,28.2,29a11,11,0,0,0,2.3-1.3h0A11.1,11.1,0,0,0,41.4,29l.5-.2Zm1.8-24a6.5,6.5,0,0,1-6.6,6.4,6.6,6.6,0,0,1-5.7-3.3,1,1,0,0,0-.8-.5h0a1,1,0,0,0-.8.5,6.5,6.5,0,0,1-2.4,2.4,6.7,6.7,0,0,1-9-2.4,1,1,0,0,0-1.7,0,6.5,6.5,0,0,1-2.4,2.4,6.6,6.6,0,0,1-3.3.9,6.5,6.5,0,0,1-6.6-6.4V13.8H43.7Z"/></g></g></svg>