<svg xmlns="http://www.w3.org/2000/svg" width="48" height="37.9" viewBox="0 0 48 37.9"><defs><style>.cls-1{fill:#252525;}</style></defs><title>Ресурс 1</title><g id="Слой_2" data-name="Слой 2"><g id="Слой_1-2" data-name="Слой 1"><path class="cls-1" d="M29.1,8.6h12v3.4h-12Z"/><path class="cls-1" d="M29.1,17.2h12v3.4h-12Z"/><path class="cls-1" d="M29.1,25.8h12v3.4h-12Z"/><path class="cls-1" d="M44.6,0H3.4A3.4,3.4,0,0,0,1,1,3.5,3.5,0,0,0,0,3.4v31a3.5,3.5,0,0,0,1,2.4,3.4,3.4,0,0,0,2.4,1H44.6a3.4,3.4,0,0,0,2.4-1,3.5,3.5,0,0,0,1-2.4V3.4A3.5,3.5,0,0,0,47,1,3.4,3.4,0,0,0,44.6,0ZM3.4,3.4H22.3v31H3.4Zm22.3,31V3.4H44.6v31Z"/></g></g></svg>