<svg xmlns="http://www.w3.org/2000/svg" width="24" height="30" viewBox="0 0 24 30"><defs><style>.cls-1{fill:#fab702;}</style></defs><title>Ресурс 1</title><g id="Слой_2" data-name="Слой 2"><g id="Слой_1-2" data-name="Слой 1"><path class="cls-1" d="M12,18a6,6,0,1,0-6-6A6,6,0,0,0,12,18Zm0-9a3,3,0,1,1-3,3A3,3,0,0,1,12,9Z"/><path class="cls-1" d="M11.1,29.7l.9.3.9-.3C13.3,29.4,24,21.7,24,12A12,12,0,0,0,0,12C0,21.7,10.7,29.4,11.1,29.7ZM12,3a9,9,0,0,1,9,9c0,6.7-6.6,12.6-9,14.6-2.4-2-9-7.9-9-14.6A9,9,0,0,1,12,3Z"/></g></g></svg>