<svg xmlns="http://www.w3.org/2000/svg" width="29.8" height="29.7" viewBox="0 0 29.8 29.7"><defs><style>.cls-1{fill:#252525;}</style></defs><title>Ресурс 1</title><g id="Слой_2" data-name="Слой 2"><g id="Слой_1-2" data-name="Слой 1"><path class="cls-1" d="M17.2,7.8A4.2,4.2,0,1,1,19,5.1a4.2,4.2,0,0,1-1.8,2.7ZM16.1,2.5l-.8-.3h-.8l-.8.3-.6.6a2.1,2.1,0,0,0,0,2.4l.6.6a2.1,2.1,0,0,0,2.4-3.5Zm5.5.1a3.2,3.2,0,0,1,4,.4,3.2,3.2,0,0,1-1,5.2,3.2,3.2,0,0,1-3.5-.7,3.2,3.2,0,0,1,.5-4.9Zm1,3.4a1.1,1.1,0,0,0,.8.3h.4l.3-.2.2-.3a1.1,1.1,0,0,0,0-.8l-.2-.3a1.1,1.1,0,0,0-.7-.3H23l-.3.2-.2.3a1.1,1.1,0,0,0-.1.4,1.1,1.1,0,0,0,.3.8ZM4.7,24.4H8.5v2.1H4.7a2.5,2.5,0,0,1-1.8-.8A2.6,2.6,0,0,1,2.1,24V20.1l-.8-.2-.7-.5A2.1,2.1,0,0,1,0,17.9V13.2a3.8,3.8,0,0,1,1.1-2.7A3.8,3.8,0,0,1,3.7,9.4H7.7a6.2,6.2,0,0,0-1.2,2.1H3.7a1.7,1.7,0,0,0-1.1.5,1.7,1.7,0,0,0-.5,1.2V18H4.3v6.2h.4ZM20.2,10.5a3.7,3.7,0,0,0-1.2-.8l-1.4-.3H12.2a3.8,3.8,0,0,0-2.6,1.1,3.8,3.8,0,0,0-1.1,2.7V20a2.3,2.3,0,0,0,.6,1.6l.7.5.8.2v4.9a2.4,2.4,0,0,0,2.1,2.5H17a2.4,2.4,0,0,0,2.1-2.5V22.2L20,22l.7-.5a2.1,2.1,0,0,0,.6-1.6V13.2a3.8,3.8,0,0,0-1.1-2.7Zm-1,9.5H17v7.1a.4.4,0,0,1-.1.3h-4V20.1H10.6V13.2a1.7,1.7,0,0,1,.5-1.2,1.7,1.7,0,0,1,1.1-.5h5.3l.9.3a1.7,1.7,0,0,1,.6.7,1.6,1.6,0,0,1,.1.6Zm6,6.5H21.3V24.4h4.2V18h2.1V13.2a1.7,1.7,0,0,0-.5-1.2,1.7,1.7,0,0,0-1.1-.5H23.3a6.2,6.2,0,0,0-1.2-2.1H26a3.8,3.8,0,0,1,2.6,1.1,3.8,3.8,0,0,1,1.1,2.7v4.6a2.3,2.3,0,0,1-.6,1.6,2.2,2.2,0,0,1-1.5.7V24a2.6,2.6,0,0,1-.7,1.8A2.5,2.5,0,0,1,25.1,26.5ZM6.4,2A3.2,3.2,0,0,0,3.4,4a3.2,3.2,0,0,0,.7,3.5A3.2,3.2,0,0,0,8.6,2.9l-1-.7Zm0,4.3H6L5.6,6l-.2-.3a1.1,1.1,0,0,1,1-1.5,1.1,1.1,0,0,1,0,2.1Z"/></g></g></svg>