<svg xmlns="http://www.w3.org/2000/svg" width="32.4" height="25.9" viewBox="0 0 32.4 25.9"><defs><style>.cls-1{fill:#252525;}</style></defs><title>Ресурс 1</title><g id="Слой_2" data-name="Слой 2"><g id="Слой_1-2" data-name="Слой 1"><path class="cls-1" d="M29.8,7.4l-2,3a13,13,0,0,1-.4,12.3H4.9A13,13,0,0,1,22,4.6l3-2A16.3,16.3,0,0,0,2.1,24.3a3.3,3.3,0,0,0,2.8,1.6H27.4a3.3,3.3,0,0,0,2.8-1.6,16.3,16.3,0,0,0-.4-17ZM13.9,18.5a3.3,3.3,0,0,0,1.1.7l1.2.2,1.2-.2a3.3,3.3,0,0,0,1.1-.7L27.7,4.7,13.9,13.9a3.2,3.2,0,0,0,0,4.6Z"/></g></g></svg>