<svg xmlns="http://www.w3.org/2000/svg" width="72" height="72" viewBox="0 0 72 72"><defs><style>.cls-1{fill:#252525;}</style></defs><title>Ресурс 1</title><g id="Слой_2" data-name="Слой 2"><g id="Слой_1-2" data-name="Слой 1"><path class="cls-1" d="M55.7,39a3.8,3.8,0,0,0-1.2-.8l-1.4-.3-1.4.3a3.8,3.8,0,0,0-1.2.8l-6,6c-2.8-.8-8-2.7-11.3-6s-5.2-8.5-6-11.3l6-6a3.8,3.8,0,0,0,0-5.4L17.9,1.1A3.8,3.8,0,0,0,16.6.3L15.2,0,13.7.3a3.8,3.8,0,0,0-1.2.8L2.2,11.4A7.6,7.6,0,0,0,0,16.8C.1,22.2,1.5,41,16.3,55.7S49.8,71.9,55.2,72h.1a7.5,7.5,0,0,0,5.3-2.2L70.9,59.5a3.8,3.8,0,0,0,0-5.4Zm-.5,25.4c-4.7-.1-20.9-1.3-33.6-14.1s-14-29-14.1-33.6l7.6-7.6L25,18.9l-4.9,4.9a3.8,3.8,0,0,0-1,3.5c.1.4,2.3,10.8,8.6,17.1S44.3,52.9,44.7,53a3.8,3.8,0,0,0,3.5-1L53.1,47l9.8,9.8Z"/></g></g></svg>