<svg xmlns="http://www.w3.org/2000/svg" width="57" height="71" viewBox="0 0 57 71"><defs><style>.cls-1{fill:#252525;}</style></defs><title>Ресурс 1</title><g id="Слой_2" data-name="Слой 2"><g id="Слой_1-2" data-name="Слой 1"><path class="cls-1" d="M28.5,42A14.3,14.3,0,0,0,43,28,14.3,14.3,0,0,0,28.5,14,14.3,14.3,0,0,0,14,28,14.3,14.3,0,0,0,28.5,42Zm0-21a7,7,0,1,1-7.2,7A7.1,7.1,0,0,1,28.5,21Z"/><path class="cls-1" d="M26.4,70.3a3.6,3.6,0,0,0,4.1,0c1.1-.8,26.5-19.1,26.4-41.9a28.5,28.5,0,0,0-57,0C-.1,51.3,25.4,69.6,26.4,70.3ZM28.5,7.1A21.4,21.4,0,0,1,49.9,28.4C49.9,44.2,34.2,58.3,28.5,63,22.8,58.3,7.1,44.2,7.1,28.4A21.4,21.4,0,0,1,28.5,7.1Z"/></g></g></svg>