<svg xmlns="http://www.w3.org/2000/svg" width="69.1" height="72" viewBox="0 0 69.1 72"><defs><style>.cls-1{fill:#252525;}</style></defs><title>Ресурс 1</title><g id="Слой_2" data-name="Слой 2"><g id="Слой_1-2" data-name="Слой 1"><path class="cls-1" d="M68.3.9A2.9,2.9,0,0,0,66.9.1a2.8,2.8,0,0,0-1.6.1L1.9,24.2A2.9,2.9,0,0,0,.5,25.3a3.1,3.1,0,0,0,0,3.4,2.9,2.9,0,0,0,1.4,1.1L29.6,41.3,40.6,70.1a3,3,0,0,0,1,1.3,2.6,2.6,0,0,0,3.2,0,3,3,0,0,0,1-1.4L69,4a3.1,3.1,0,0,0,.1-1.7A3,3,0,0,0,68.3.9ZM43.2,60.6l-8-21L49,25.2,44.9,21,31,35.5,10.9,27,61.5,8Z"/></g></g></svg>